{"title":"The.Serpent.and.the.Rainbow.1988.DVDRip.SweSub.Xvid","uid":8363118,"size":732764572,"categoryP":"video","categoryS":"movies","magnet":"?xt=urn:btih:c8a2e88d42deaa3b73a801894472d8c7a668380f&amp;dn=The.Serpent.and.the.Rainbow.1988.DVDRip.SweSub.Xvid&amp;tr=udp%3A%2F%2Ftracker.openbittorrent.com%3A80&amp;tr=udp%3A%2F%2Fopen.demonii.com%3A1337&amp;tr=udp%3A%2F%2Ftracker.coppersurfer.tk%3A6969&amp;tr=udp%3A%2F%2Fexodus.desync.com%3A6969","seeders":0,"leechers":1,"uploader":"nordjok","files":-1,"time":1365690594,"description":"                            Swedish Hardsub\n\n\n &lt;a href=&quot;\nhttp://www.imdb.com/title/tt0096071/&quot; rel=&quot;nofollow&quot; target=&quot;_NEW&quot;&gt;\nhttp://www.imdb.com/title/tt0096071/&lt;/a&gt;\n\n\n\n\nGeneral\nComplete name   : The.Serpent.and.the.Rainbow.1988.DVDRip.SweSub.Xvid.avi\nFormat                              : AVI\nFormat/Info                         : Audio Video Interleave\nFile size                           : 699 MiB\nDuration                            : 1h 33mn\n\nVideo\nID                                  : 0\nFormat                              : MPEG-4 Visual\nFormat profile                      : Advanced Simple@L5\nFormat settings, BVOP               : 2\nFormat settings, QPel               : No\nFormat settings, GMC                : No warppoints\nFormat settings, Matrix             : Default (H.263)\nMuxing mode                         : Packed bitstream\nCodec ID                            : XVID\nCodec ID/Hint                       : XviD\nDuration                            : 1h 33mn\nBit rate                            : 901 Kbps\nWidth                               : 656 pixels\nHeight                              : 368 pixels\nDisplay aspect ratio                : 16:9\nFrame rate                          : 25.000 fps\nColor space                         : YUV\nChroma subsampling                  : 4:2:0\nBit depth                           : 8 bits\nScan type                           : Progressive\nCompression mode                    : Lossy\nBits/(Pixel*Frame)                  : 0.149\nStream size                         : 603 MiB (86%)\nWriting library                     : XviD 73\n\nAudio\nID                                  : 1\nFormat                              : MPEG Audio\nFormat version                      : Version 1\nFormat profile                      : Layer 3\nMode                                : Joint stereo\nMode extension                      : MS Stereo\nCodec ID                            : 55\nCodec ID/Hint                       : MP3\nDuration                            : 1h 33mn\nBit rate mode                       : Variable\nBit rate                            : 128 Kbps\nChannel(s)                          : 2 channels\nSampling rate                       : 48.0 KHz\nCompression mode                    : Lossy\nStream size                         : 87.2 MiB (12%)\nAlignment                           : Aligned on interleaves\nInterleave, duration                : 24 ms (0.60 video frame)\nInterleave, preload duration        : 480 ms","torrent":{"xt":"urn:btih:c8a2e88d42deaa3b73a801894472d8c7a668380f","amp;dn":"The.Serpent.and.the.Rainbow.1988.DVDRip.SweSub.Xvid","amp;tr":["udp%3A%2F%2Ftracker.openbittorrent.com%3A80","udp%3A%2F%2Fopen.demonii.com%3A1337","udp%3A%2F%2Ftracker.coppersurfer.tk%3A6969","udp%3A%2F%2Fexodus.desync.com%3A6969"],"infoHash":"c8a2e88d42deaa3b73a801894472d8c7a668380f","infoHashBuffer":{"type":"Buffer","data":[200,162,232,141,66,222,170,59,115,168,1,137,68,114,216,199,166,104,56,15]},"announce":[],"urlList":[]}}